<?xml version="1.0" standalone="yes"?>

<svg version="1.1" viewBox="0.0 0.0 960.0 720.0" fill="none" stroke="none" stroke-linecap="square" stroke-miterlimit="10" xmlns="http://www.w3.org/2000/svg" xmlns:xlink="http://www.w3.org/1999/xlink"><clipPath id="p.0"><path d="m0 0l960.0 0l0 720.0l-960.0 0l0 -720.0z" clip-rule="nonzero"></path></clipPath><g clip-path="url(#p.0)"><path fill="#000000" fill-opacity="0.0" d="m0 0l960.0 0l0 720.0l-960.0 0z" fill-rule="nonzero"></path><path fill="#4a86e8" d="m288.0 127.25722l0 0c0 -28.153473 26.305908 -50.97638 58.75592 -50.97638l0 0c32.44998 0 58.75589 22.822906 58.75589 50.97638l0 0c0 28.153473 -26.305908 50.97638 -58.75589 50.97638l0 0c-32.450012 0 -58.75592 -22.822906 -58.75592 -50.97638zm25.48819 0c0 14.076736 14.89447 25.48819 33.26773 25.48819c18.37323 0 33.2677 -11.411453 33.2677 -25.48819l0 0c0 -14.076736 -14.89447 -25.48819 -33.2677 -25.48819l0 0c-18.37326 0 -33.26773 11.411453 -33.26773 25.48819z" fill-rule="nonzero"></path><path stroke="#4a86e8" stroke-width="2.0" stroke-linejoin="round" stroke-linecap="butt" d="m288.0 127.25722l0 0c0 -28.153473 26.305908 -50.97638 58.75592 -50.97638l0 0c32.44998 0 58.75589 22.822906 58.75589 50.97638l0 0c0 28.153473 -26.305908 50.97638 -58.75589 50.97638l0 0c-32.450012 0 -58.75592 -22.822906 -58.75592 -50.97638zm25.48819 0c0 14.076736 14.89447 25.48819 33.26773 25.48819c18.37323 0 33.2677 -11.411453 33.2677 -25.48819l0 0c0 -14.076736 -14.89447 -25.48819 -33.2677 -25.48819l0 0c-18.37326 0 -33.26773 11.411453 -33.26773 25.48819z" fill-rule="nonzero"></path><path fill="#4a86e8" d="m297.25992 102.14988l-2.9448853 -32.77166l31.574799 9.307091z" fill-rule="nonzero"></path><path stroke="#4a86e8" stroke-width="2.0" stroke-linejoin="round" stroke-linecap="butt" d="m297.25992 102.14988l-2.9448853 -32.77166l31.574799 9.307091z" fill-rule="nonzero"></path><path fill="#4a86e8" d="m394.97906 102.14988l2.9448853 -32.77166l-31.574799 9.307091z" fill-rule="nonzero"></path><path stroke="#4a86e8" stroke-width="2.0" stroke-linejoin="round" stroke-linecap="butt" d="m394.97906 102.14988l2.9448853 -32.77166l-31.574799 9.307091z" fill-rule="nonzero"></path><path fill="#4a86e8" d="m334.29922 163.45932l24.91336 0l0 82.519684l-24.91336 0z" fill-rule="nonzero"></path><path stroke="#4a86e8" stroke-width="2.0" stroke-linejoin="round" stroke-linecap="butt" d="m334.29922 163.45932l24.91336 0l0 82.519684l-24.91336 0z" fill-rule="nonzero"></path><path fill="#4a86e8" d="m340.9449 227.28871l-34.15497 0c-5.785309 0 -10.47525 -4.689926 -10.47525 -10.47525l0 -17.482834l-8.314667 0l15.710754 -19.53798l15.710754 19.53798l-8.314667 0l0 13.165909c0 2.2888184E-4 1.8310547E-4 3.9672852E-4 3.9672852E-4 3.9672852E-4l29.837646 -3.9672852E-4z" fill-rule="nonzero"></path><path stroke="#4a86e8" stroke-width="2.0" stroke-linejoin="round" stroke-linecap="butt" d="m340.9449 227.28871l-34.15497 0c-5.785309 0 -10.47525 -4.689926 -10.47525 -10.47525l0 -17.482834l-8.314667 0l15.710754 -19.53798l15.710754 19.53798l-8.314667 0l0 13.165909c0 2.2888184E-4 1.8310547E-4 3.9672852E-4 3.9672852E-4 3.9672852E-4l29.837646 -3.9672852E-4z" fill-rule="nonzero"></path></g></svg>

